# xmcd
#
# Track frame offsets:
#	150
#	13597
#	28177
#	41202
#	52802
#	65367
#	75082
#	86397
#	102932
#	116985
#	131770
#	146472
#
# Disc length: 2098 seconds
#
# Revision: 1
# Processed by: cddbd v1.4PL0 Copyright (c) Steve Scherf et al.
# Submitted via: audiograbber 1.80.04
#
DISCID=9708300c
DTITLE=The Bayou Pickers - Louisiana Man
DYEAR=1900
DGENRE=
TTITLE0=Jole Blon
TTITLE1=Louisiana Man
TTITLE2=Cotton-Eyed Joe
TTITLE3=Oh, Lonesome Me
TTITLE4=Blue Suede Shoes
TTITLE5=Hound Dog
TTITLE6=Jambalaya (On The Bayou)
TTITLE7=Friends In Low Places
TTITLE8=Rocky Top
TTITLE9=San Antonio Rose
TTITLE10=Texas Medley- The Yellow Rose Of Texas-The Eyes Of Texas Are Upon You
TTITLE11=Dixie
EXTD=
EXTT0=
EXTT1=
EXTT2=
EXTT3=
EXTT4=
EXTT5=
EXTT6=
EXTT7=
EXTT8=
EXTT9=
EXTT10=
EXTT11=
PLAYORDER=
